<svg width="125" height="44" viewBox="0 0 125 44" fill="none" xmlns="http://www.w3.org/2000/svg">
<rect x="125" width="44" height="125" rx="7" transform="rotate(90 125 0)" fill="#FBB03B"/>
<path d="M91.9299 27.2131C91.9302 27.342 91.9575 27.4695 92.01 27.5872C92.0625 27.7049 92.139 27.8104 92.2347 27.8967C92.4162 28.0605 92.6552 28.1456 92.8994 28.1335C93.1435 28.1214 93.3729 28.013 93.5373 27.8321C94.9713 26.2364 95.7646 24.1668 95.7646 22.0215C95.7646 19.8761 94.9713 17.8065 93.5373 16.2108C93.3731 16.0283 93.1432 15.9185 92.898 15.9055C92.7767 15.8991 92.6552 15.9166 92.5406 15.9571C92.426 15.9976 92.3205 16.0603 92.2301 16.1416C92.1397 16.2228 92.0663 16.3211 92.0139 16.4308C91.9615 16.5405 91.9312 16.6594 91.9248 16.7808C91.9118 17.0259 91.9967 17.2662 92.1608 17.4487C93.2904 18.7039 93.9154 20.3328 93.9154 22.0215C93.9154 23.7101 93.2904 25.339 92.1608 26.5942C92.0102 26.765 91.9279 26.9854 91.9299 27.2131Z" fill="#F3F5F4"/>
<path d="M90.3129 19.0929C90.1448 18.9279 89.92 18.8334 89.6845 18.8287C89.449 18.824 89.2206 18.9094 89.046 19.0675C88.8714 19.2256 88.7637 19.4444 88.7451 19.6792C88.7265 19.9141 88.7982 20.1471 88.9457 20.3308C89.3478 20.8022 89.5687 21.4016 89.5687 22.0213C89.5687 22.641 89.3478 23.2403 88.9457 23.7118C88.7917 23.8812 88.7061 24.1018 88.7055 24.3307C88.706 24.517 88.7628 24.6988 88.8684 24.8522C88.974 25.0056 89.1235 25.1235 89.2973 25.1904C89.4712 25.2574 89.6611 25.2702 89.8424 25.2272C90.0236 25.1843 90.1876 25.0875 90.3129 24.9497C91.0103 24.1334 91.3936 23.095 91.3936 22.0213C91.3936 20.9476 91.0103 19.9092 90.3129 19.0929Z" fill="#F3F5F4"/>
<path d="M95.172 30.0954C95.1725 30.2816 95.2293 30.4634 95.3349 30.6168C95.4405 30.7702 95.59 30.8881 95.7638 30.955C95.9376 31.022 96.1276 31.0348 96.3089 30.9918C96.4901 30.9489 96.6541 30.8521 96.7794 30.7143C98.9205 28.3251 100.104 25.2297 100.104 22.0215C100.104 18.8133 98.9205 15.7179 96.7794 13.3287C96.6163 13.1464 96.3876 13.0363 96.1434 13.0225C95.8992 13.0086 95.6595 13.0921 95.4769 13.2548C95.3853 13.3356 95.3106 13.4339 95.2573 13.5438C95.2039 13.6538 95.1729 13.7732 95.166 13.8952C95.1592 14.0172 95.1766 14.1394 95.2172 14.2546C95.2579 14.3698 95.321 14.4759 95.403 14.5665C97.2415 16.6144 98.2584 19.2694 98.2584 22.0215C98.2584 24.7735 97.2415 27.4285 95.403 29.4764C95.2523 29.6472 95.1701 29.8676 95.172 30.0954Z" fill="#F3F5F4"/>
<path d="M98.6087 11.6752C101.156 14.5196 102.564 18.2035 102.564 22.0216C102.564 25.8396 101.156 29.5235 98.6087 32.368C98.4602 32.5364 98.3781 32.7531 98.3777 32.9777C98.3782 33.1639 98.435 33.3457 98.5406 33.4991C98.6462 33.6525 98.7958 33.7704 98.9696 33.8373C99.1434 33.9043 99.3334 33.9171 99.5146 33.8741C99.6958 33.8312 99.8598 33.7344 99.9851 33.5966C102.835 30.4147 104.411 26.2932 104.411 22.0216C104.411 17.7499 102.835 13.6284 99.9851 10.4466C99.9066 10.3488 99.8091 10.268 99.6984 10.2091C99.5877 10.1502 99.4661 10.1145 99.3412 10.1041C99.2162 10.0937 99.0904 10.1089 98.9715 10.1487C98.8526 10.1885 98.743 10.2521 98.6495 10.3356C98.5559 10.4191 98.4804 10.5207 98.4274 10.6344C98.3744 10.748 98.3451 10.8713 98.3413 10.9966C98.3375 11.122 98.3592 11.2468 98.4052 11.3634C98.4512 11.4801 98.5204 11.5862 98.6087 11.6752Z" fill="#F3F5F4"/>
<mask id="path-6-outside-1_2_2068" maskUnits="userSpaceOnUse" x="35.7061" y="11" width="51" height="22" fill="black">
<rect fill="white" x="35.7061" y="11" width="51" height="22"/>
<path d="M44.9261 29.24C44.2194 29.24 43.5594 29.1533 42.9461 28.98C42.3327 28.8067 41.7861 28.5667 41.3061 28.26C40.8261 27.94 40.4261 27.5867 40.1061 27.2C39.7994 26.8133 39.5994 26.4067 39.5061 25.98L42.1861 25.18C42.3594 25.6333 42.6661 26.0267 43.1061 26.36C43.5461 26.68 44.0994 26.8467 44.7661 26.86C45.4727 26.8733 46.0461 26.72 46.4861 26.4C46.9394 26.08 47.1661 25.6667 47.1661 25.16C47.1661 24.72 46.9861 24.3533 46.6261 24.06C46.2794 23.7533 45.7994 23.52 45.1861 23.36L43.3661 22.88C42.6861 22.7067 42.0861 22.4467 41.5661 22.1C41.0461 21.74 40.6394 21.3 40.3461 20.78C40.0527 20.26 39.9061 19.6533 39.9061 18.96C39.9061 17.64 40.3394 16.6133 41.2061 15.88C42.0861 15.1333 43.3261 14.76 44.9261 14.76C45.8194 14.76 46.5994 14.8933 47.2661 15.16C47.9461 15.4133 48.5127 15.78 48.9661 16.26C49.4194 16.74 49.7661 17.3067 50.0061 17.96L47.3461 18.78C47.1861 18.3267 46.8927 17.94 46.4661 17.62C46.0394 17.3 45.4994 17.14 44.8461 17.14C44.1794 17.14 43.6527 17.2933 43.2661 17.6C42.8927 17.9067 42.7061 18.34 42.7061 18.9C42.7061 19.34 42.8527 19.6867 43.1461 19.94C43.4527 20.1933 43.8661 20.3867 44.3861 20.52L46.2261 20.98C47.4261 21.2733 48.3594 21.8 49.0261 22.56C49.6927 23.32 50.0261 24.1667 50.0261 25.1C50.0261 25.9267 49.8261 26.6533 49.4261 27.28C49.0261 27.8933 48.4461 28.3733 47.6861 28.72C46.9261 29.0667 46.0061 29.24 44.9261 29.24ZM56.8145 29.24C55.7745 29.24 54.8478 29.02 54.0345 28.58C53.2212 28.1267 52.5878 27.5067 52.1345 26.72C51.6812 25.92 51.4545 25.0133 51.4545 24C51.4545 22.9733 51.6812 22.0667 52.1345 21.28C52.5878 20.4933 53.2145 19.88 54.0145 19.44C54.8145 18.9867 55.7345 18.76 56.7745 18.76C57.7745 18.76 58.6878 19.0067 59.5145 19.5C60.3412 19.9933 60.9412 20.7067 61.3145 21.64L58.8345 22.52C58.6478 22.1333 58.3545 21.8267 57.9545 21.6C57.5678 21.36 57.1345 21.24 56.6545 21.24C56.1612 21.24 55.7278 21.36 55.3545 21.6C54.9812 21.8267 54.6878 22.1467 54.4745 22.56C54.2612 22.9733 54.1545 23.4533 54.1545 24C54.1545 24.5467 54.2612 25.0267 54.4745 25.44C54.6878 25.84 54.9878 26.16 55.3745 26.4C55.7612 26.64 56.2012 26.76 56.6945 26.76C57.1745 26.76 57.6078 26.6333 57.9945 26.38C58.3945 26.1267 58.6878 25.7933 58.8745 25.38L61.3745 26.26C60.9878 27.2067 60.3812 27.94 59.5545 28.46C58.7412 28.98 57.8278 29.24 56.8145 29.24ZM68.9525 29L68.8725 26.98V23.94C68.8725 23.34 68.8058 22.8267 68.6725 22.4C68.5525 21.9733 68.3525 21.6467 68.0725 21.42C67.8058 21.18 67.4391 21.06 66.9725 21.06C66.5458 21.06 66.1591 21.1533 65.8125 21.34C65.4658 21.5267 65.1725 21.8133 64.9325 22.2L62.6125 21.4C62.7991 20.9733 63.0725 20.56 63.4325 20.16C63.7925 19.7467 64.2591 19.4133 64.8325 19.16C65.4191 18.8933 66.1325 18.76 66.9725 18.76C67.9858 18.76 68.8258 18.9533 69.4925 19.34C70.1725 19.7267 70.6725 20.2733 70.9925 20.98C71.3258 21.6733 71.4858 22.5 71.4725 23.46L71.4125 29H68.9525ZM66.1525 29.24C64.9525 29.24 64.0191 28.9733 63.3525 28.44C62.6991 27.9067 62.3725 27.1533 62.3725 26.18C62.3725 25.1133 62.7258 24.3133 63.4325 23.78C64.1525 23.2333 65.1591 22.96 66.4525 22.96H68.9925V24.92H67.3725C66.5058 24.92 65.9058 25.0267 65.5725 25.24C65.2391 25.44 65.0725 25.7267 65.0725 26.1C65.0725 26.3933 65.2058 26.6267 65.4725 26.8C65.7391 26.96 66.1125 27.04 66.5925 27.04C67.0325 27.04 67.4191 26.94 67.7525 26.74C68.0991 26.5267 68.3725 26.26 68.5725 25.94C68.7725 25.6067 68.8725 25.2667 68.8725 24.92H69.5125C69.5125 26.28 69.2525 27.34 68.7325 28.1C68.2258 28.86 67.3658 29.24 66.1525 29.24ZM73.5765 29V19H76.0565L76.2165 20.84V29H73.5765ZM80.1965 29V23.88H82.8365V29H80.1965ZM80.1965 23.88C80.1965 23.2 80.1165 22.6733 79.9565 22.3C79.8099 21.9267 79.5965 21.66 79.3165 21.5C79.0365 21.3267 78.7099 21.24 78.3365 21.24C77.6565 21.2267 77.1299 21.4333 76.7565 21.86C76.3965 22.2867 76.2165 22.92 76.2165 23.76H75.3365C75.3365 22.6933 75.4899 21.7933 75.7965 21.06C76.1165 20.3133 76.5565 19.7467 77.1165 19.36C77.6899 18.96 78.3565 18.76 79.1165 18.76C79.9032 18.76 80.5765 18.92 81.1365 19.24C81.6965 19.56 82.1232 20.06 82.4165 20.74C82.7099 21.4067 82.8499 22.2733 82.8365 23.34V23.88H80.1965Z"/>
</mask>
<path d="M44.9261 29.24C44.2194 29.24 43.5594 29.1533 42.9461 28.98C42.3327 28.8067 41.7861 28.5667 41.3061 28.26C40.8261 27.94 40.4261 27.5867 40.1061 27.2C39.7994 26.8133 39.5994 26.4067 39.5061 25.98L42.1861 25.18C42.3594 25.6333 42.6661 26.0267 43.1061 26.36C43.5461 26.68 44.0994 26.8467 44.7661 26.86C45.4727 26.8733 46.0461 26.72 46.4861 26.4C46.9394 26.08 47.1661 25.6667 47.1661 25.16C47.1661 24.72 46.9861 24.3533 46.6261 24.06C46.2794 23.7533 45.7994 23.52 45.1861 23.36L43.3661 22.88C42.6861 22.7067 42.0861 22.4467 41.5661 22.1C41.0461 21.74 40.6394 21.3 40.3461 20.78C40.0527 20.26 39.9061 19.6533 39.9061 18.96C39.9061 17.64 40.3394 16.6133 41.2061 15.88C42.0861 15.1333 43.3261 14.76 44.9261 14.76C45.8194 14.76 46.5994 14.8933 47.2661 15.16C47.9461 15.4133 48.5127 15.78 48.9661 16.26C49.4194 16.74 49.7661 17.3067 50.0061 17.96L47.3461 18.78C47.1861 18.3267 46.8927 17.94 46.4661 17.62C46.0394 17.3 45.4994 17.14 44.8461 17.14C44.1794 17.14 43.6527 17.2933 43.2661 17.6C42.8927 17.9067 42.7061 18.34 42.7061 18.9C42.7061 19.34 42.8527 19.6867 43.1461 19.94C43.4527 20.1933 43.8661 20.3867 44.3861 20.52L46.2261 20.98C47.4261 21.2733 48.3594 21.8 49.0261 22.56C49.6927 23.32 50.0261 24.1667 50.0261 25.1C50.0261 25.9267 49.8261 26.6533 49.4261 27.28C49.0261 27.8933 48.4461 28.3733 47.6861 28.72C46.9261 29.0667 46.0061 29.24 44.9261 29.24ZM56.8145 29.24C55.7745 29.24 54.8478 29.02 54.0345 28.58C53.2212 28.1267 52.5878 27.5067 52.1345 26.72C51.6812 25.92 51.4545 25.0133 51.4545 24C51.4545 22.9733 51.6812 22.0667 52.1345 21.28C52.5878 20.4933 53.2145 19.88 54.0145 19.44C54.8145 18.9867 55.7345 18.76 56.7745 18.76C57.7745 18.76 58.6878 19.0067 59.5145 19.5C60.3412 19.9933 60.9412 20.7067 61.3145 21.64L58.8345 22.52C58.6478 22.1333 58.3545 21.8267 57.9545 21.6C57.5678 21.36 57.1345 21.24 56.6545 21.24C56.1612 21.24 55.7278 21.36 55.3545 21.6C54.9812 21.8267 54.6878 22.1467 54.4745 22.56C54.2612 22.9733 54.1545 23.4533 54.1545 24C54.1545 24.5467 54.2612 25.0267 54.4745 25.44C54.6878 25.84 54.9878 26.16 55.3745 26.4C55.7612 26.64 56.2012 26.76 56.6945 26.76C57.1745 26.76 57.6078 26.6333 57.9945 26.38C58.3945 26.1267 58.6878 25.7933 58.8745 25.38L61.3745 26.26C60.9878 27.2067 60.3812 27.94 59.5545 28.46C58.7412 28.98 57.8278 29.24 56.8145 29.24ZM68.9525 29L68.8725 26.98V23.94C68.8725 23.34 68.8058 22.8267 68.6725 22.4C68.5525 21.9733 68.3525 21.6467 68.0725 21.42C67.8058 21.18 67.4391 21.06 66.9725 21.06C66.5458 21.06 66.1591 21.1533 65.8125 21.34C65.4658 21.5267 65.1725 21.8133 64.9325 22.2L62.6125 21.4C62.7991 20.9733 63.0725 20.56 63.4325 20.16C63.7925 19.7467 64.2591 19.4133 64.8325 19.16C65.4191 18.8933 66.1325 18.76 66.9725 18.76C67.9858 18.76 68.8258 18.9533 69.4925 19.34C70.1725 19.7267 70.6725 20.2733 70.9925 20.98C71.3258 21.6733 71.4858 22.5 71.4725 23.46L71.4125 29H68.9525ZM66.1525 29.24C64.9525 29.24 64.0191 28.9733 63.3525 28.44C62.6991 27.9067 62.3725 27.1533 62.3725 26.18C62.3725 25.1133 62.7258 24.3133 63.4325 23.78C64.1525 23.2333 65.1591 22.96 66.4525 22.96H68.9925V24.92H67.3725C66.5058 24.92 65.9058 25.0267 65.5725 25.24C65.2391 25.44 65.0725 25.7267 65.0725 26.1C65.0725 26.3933 65.2058 26.6267 65.4725 26.8C65.7391 26.96 66.1125 27.04 66.5925 27.04C67.0325 27.04 67.4191 26.94 67.7525 26.74C68.0991 26.5267 68.3725 26.26 68.5725 25.94C68.7725 25.6067 68.8725 25.2667 68.8725 24.92H69.5125C69.5125 26.28 69.2525 27.34 68.7325 28.1C68.2258 28.86 67.3658 29.24 66.1525 29.24ZM73.5765 29V19H76.0565L76.2165 20.84V29H73.5765ZM80.1965 29V23.88H82.8365V29H80.1965ZM80.1965 23.88C80.1965 23.2 80.1165 22.6733 79.9565 22.3C79.8099 21.9267 79.5965 21.66 79.3165 21.5C79.0365 21.3267 78.7099 21.24 78.3365 21.24C77.6565 21.2267 77.1299 21.4333 76.7565 21.86C76.3965 22.2867 76.2165 22.92 76.2165 23.76H75.3365C75.3365 22.6933 75.4899 21.7933 75.7965 21.06C76.1165 20.3133 76.5565 19.7467 77.1165 19.36C77.6899 18.96 78.3565 18.76 79.1165 18.76C79.9032 18.76 80.5765 18.92 81.1365 19.24C81.6965 19.56 82.1232 20.06 82.4165 20.74C82.7099 21.4067 82.8499 22.2733 82.8365 23.34V23.88H80.1965Z" fill="white"/>
<path d="M42.9461 28.98L42.1 31.9739L42.9461 28.98ZM41.3061 28.26L39.5803 30.8486L39.6055 30.8654L39.6311 30.8817L41.3061 28.26ZM40.1061 27.2L37.6685 29.1332L37.6886 29.1586L37.7093 29.1835L40.1061 27.2ZM39.5061 25.98L38.6162 22.9989L35.8499 23.8246L36.4668 26.6448L39.5061 25.98ZM42.1861 25.18L45.092 24.0689L44.0614 21.3734L41.2962 22.1989L42.1861 25.18ZM43.1061 26.36L41.2274 28.8398L41.2516 28.8582L41.2762 28.8761L43.1061 26.36ZM44.7661 26.86L44.7038 29.9705L44.7074 29.9706L44.7661 26.86ZM46.4861 26.4L44.6919 23.8583L44.674 23.871L44.6562 23.8839L46.4861 26.4ZM46.6261 24.06L44.5647 26.3902L44.612 26.432L44.6608 26.4718L46.6261 24.06ZM45.1861 23.36L44.3927 26.3683L44.4007 26.3704L45.1861 23.36ZM43.3661 22.88L44.1594 19.8718L44.147 19.8685L44.1345 19.8653L43.3661 22.88ZM41.5661 22.1L39.7952 24.6579L39.8176 24.6735L39.8403 24.6886L41.5661 22.1ZM41.2061 15.88L43.2157 18.255L43.2189 18.2523L41.2061 15.88ZM47.2661 15.16L46.1106 18.0486L46.1451 18.0624L46.1799 18.0754L47.2661 15.16ZM48.9661 16.26L46.7042 18.3962L46.7042 18.3962L48.9661 16.26ZM50.0061 17.96L50.9226 20.9331L54.0576 19.9666L52.9264 16.8872L50.0061 17.96ZM47.3461 18.78L44.4123 19.8154L45.4069 22.6334L48.2626 21.753L47.3461 18.78ZM46.4661 17.62L44.5994 20.1089L44.5994 20.1089L46.4661 17.62ZM43.2661 17.6L41.3328 15.1625L41.3119 15.179L41.2913 15.196L43.2661 17.6ZM43.1461 19.94L41.1126 22.2946L41.1384 22.3168L41.1646 22.3385L43.1461 19.94ZM44.3861 20.52L43.6133 23.5336L43.6224 23.5359L43.6315 23.5382L44.3861 20.52ZM46.2261 20.98L45.4715 23.9982L45.4794 24.0002L45.4873 24.0021L46.2261 20.98ZM49.0261 22.56L51.3649 20.5084L51.3649 20.5084L49.0261 22.56ZM49.4261 27.28L52.032 28.9795L52.0403 28.9667L52.0485 28.9539L49.4261 27.28ZM47.6861 28.72L48.9772 31.5505L47.6861 28.72ZM44.9261 26.1289C44.4748 26.1289 44.1021 26.0738 43.7921 25.9861L42.1 31.9739C43.0167 32.2329 43.964 32.3511 44.9261 32.3511V26.1289ZM43.7921 25.9861C43.4375 25.8859 43.176 25.7628 42.981 25.6383L39.6311 30.8817C40.3961 31.3705 41.228 31.7274 42.1 31.9739L43.7921 25.9861ZM43.0318 25.6714C42.7669 25.4948 42.6035 25.3381 42.5028 25.2165L37.7093 29.1835C38.2486 29.8353 38.8852 30.3852 39.5803 30.8486L43.0318 25.6714ZM42.5436 25.2668C42.5159 25.2318 42.5118 25.2198 42.5178 25.232C42.5207 25.2379 42.5254 25.2484 42.5307 25.2633C42.5359 25.2782 42.541 25.2957 42.5453 25.3152L36.4668 26.6448C36.6739 27.5916 37.1058 28.4237 37.6685 29.1332L42.5436 25.2668ZM40.3959 28.9611L43.0759 28.1611L41.2962 22.1989L38.6162 22.9989L40.3959 28.9611ZM39.2801 26.2911C39.6886 27.3594 40.389 28.2047 41.2274 28.8398L44.9847 23.8802C44.9575 23.8595 44.9701 23.8643 44.9996 23.9021C45.0307 23.942 45.0654 23.9994 45.092 24.0689L39.2801 26.2911ZM41.2762 28.8761C42.337 29.6476 43.5464 29.9473 44.7038 29.9705L44.8283 23.7495C44.7355 23.7477 44.716 23.7364 44.7483 23.7461C44.7647 23.751 44.7917 23.7606 44.8261 23.7774C44.8607 23.7944 44.8981 23.8165 44.9359 23.8439L41.2762 28.8761ZM44.7074 29.9706C45.8882 29.9928 47.1836 29.7396 48.3159 28.9161L44.6562 23.8839C44.7722 23.7996 44.8734 23.7626 44.9223 23.7495C44.9643 23.7383 44.9408 23.7516 44.8247 23.7494L44.7074 29.9706ZM48.2802 28.9417C49.4675 28.1036 50.2772 26.785 50.2772 25.16H44.0549C44.0549 24.9307 44.1114 24.64 44.2682 24.3541C44.4194 24.0783 44.5999 23.9233 44.6919 23.8583L48.2802 28.9417ZM50.2772 25.16C50.2772 23.7267 49.6302 22.4947 48.5913 21.6482L44.6608 26.4718C44.5408 26.374 44.3713 26.1969 44.2383 25.926C44.103 25.6503 44.0549 25.3779 44.0549 25.16H50.2772ZM48.6874 21.7298C47.865 21.0023 46.8919 20.5898 45.9714 20.3496L44.4007 26.3704C44.545 26.408 44.6205 26.4407 44.6459 26.453C44.6699 26.4647 44.6322 26.4499 44.5647 26.3902L48.6874 21.7298ZM45.9794 20.3518L44.1594 19.8718L42.5727 25.8882L44.3927 26.3682L45.9794 20.3518ZM44.1345 19.8653C43.7539 19.7683 43.4855 19.6405 43.2918 19.5114L39.8403 24.6886C40.6866 25.2528 41.6182 25.6451 42.5976 25.8947L44.1345 19.8653ZM43.3369 19.5421C43.1802 19.4335 43.1044 19.3376 43.0558 19.2514L37.6363 22.3086C38.1744 23.2624 38.9119 24.0465 39.7952 24.6579L43.3369 19.5421ZM43.0558 19.2514C43.0554 19.2508 43.0539 19.2481 43.0515 19.242C43.0491 19.2358 43.0448 19.2237 43.04 19.2039C43.0306 19.1647 43.0172 19.0872 43.0172 18.96H36.7949C36.7949 20.1017 37.0401 21.2516 37.6363 22.3086L43.0558 19.2514ZM43.0172 18.96C43.0172 18.3897 43.1647 18.2981 43.2157 18.255L39.1965 13.505C37.514 14.9286 36.7949 16.8903 36.7949 18.96H43.0172ZM43.2189 18.2523C43.3529 18.1385 43.78 17.8711 44.9261 17.8711V11.6489C42.8721 11.6489 40.8192 12.1282 39.1932 13.5077L43.2189 18.2523ZM44.9261 17.8711C45.5169 17.8711 45.8891 17.96 46.1106 18.0486L48.4215 12.2714C47.3096 11.8267 46.1219 11.6489 44.9261 11.6489V17.8711ZM46.1799 18.0754C46.4584 18.1791 46.6093 18.2957 46.7042 18.3962L51.2279 14.1238C50.4161 13.2643 49.4337 12.6475 48.3522 12.2446L46.1799 18.0754ZM46.7042 18.3962C46.8528 18.5535 46.983 18.753 47.0857 19.0328L52.9264 16.8872C52.5491 15.8603 51.986 14.9265 51.2279 14.1238L46.7042 18.3962ZM49.0896 14.9869L46.4296 15.8069L48.2626 21.753L50.9226 20.9331L49.0896 14.9869ZM50.2798 17.7446C49.8933 16.6495 49.1949 15.7777 48.3327 15.1311L44.5994 20.1089C44.6041 20.1124 44.5718 20.0888 44.5275 20.0303C44.4815 19.9698 44.4405 19.8952 44.4123 19.8154L50.2798 17.7446ZM48.3327 15.1311C47.2556 14.3233 46.0178 14.0289 44.8461 14.0289V20.2511C44.9202 20.2511 44.9157 20.2603 44.8572 20.2429C44.7929 20.2239 44.698 20.1828 44.5994 20.1089L48.3327 15.1311ZM44.8461 14.0289C43.7226 14.0289 42.4349 14.2884 41.3328 15.1625L45.1993 20.0375C45.0436 20.161 44.901 20.2187 44.8207 20.2421C44.7484 20.2631 44.7461 20.2511 44.8461 20.2511V14.0289ZM41.2913 15.196C40.0797 16.1912 39.5949 17.5746 39.5949 18.9H45.8172C45.8172 18.9655 45.8057 19.1481 45.7033 19.3858C45.5955 19.6362 45.4282 19.8501 45.2408 20.004L41.2913 15.196ZM39.5949 18.9C39.5949 20.1078 40.0381 21.3666 41.1126 22.2946L45.1795 17.5854C45.383 17.7612 45.563 17.9983 45.6813 18.2778C45.7953 18.5472 45.8172 18.773 45.8172 18.9H39.5949ZM41.1646 22.3385C41.9248 22.9665 42.797 23.3243 43.6133 23.5336L45.1588 17.5064C45.1076 17.4933 45.0698 17.4814 45.0438 17.4723C45.0178 17.4632 45.0053 17.4575 45.0042 17.4569C45.0013 17.4556 45.0512 17.4784 45.1275 17.5415L41.1646 22.3385ZM43.6315 23.5382L45.4715 23.9982L46.9806 17.9618L45.1406 17.5018L43.6315 23.5382ZM45.4873 24.0021C46.2067 24.178 46.5275 24.4295 46.6872 24.6116L51.3649 20.5084C50.1913 19.1705 48.6455 18.3687 46.9648 17.9579L45.4873 24.0021ZM46.6872 24.6116C46.9009 24.8551 46.9149 24.9869 46.9149 25.1H53.1372C53.1372 23.3465 52.4845 21.7849 51.3649 20.5084L46.6872 24.6116ZM46.9149 25.1C46.9149 25.4022 46.8495 25.5343 46.8036 25.6061L52.0485 28.9539C52.8026 27.7724 53.1372 26.4512 53.1372 25.1H46.9149ZM46.8202 25.5805C46.7859 25.633 46.6958 25.7522 46.3949 25.8895L48.9772 31.5505C50.1963 30.9944 51.2662 30.1536 52.032 28.9795L46.8202 25.5805ZM46.3949 25.8895C46.1406 26.0055 45.6859 26.1289 44.9261 26.1289V32.3511C46.3262 32.3511 47.7115 32.1279 48.9772 31.5505L46.3949 25.8895ZM54.0345 28.58L52.5198 31.2975L52.5369 31.307L52.5542 31.3164L54.0345 28.58ZM52.1345 26.72L49.4278 28.2538L49.4333 28.2636L49.4389 28.2734L52.1345 26.72ZM52.1345 21.28L54.8301 22.8334V22.8334L52.1345 21.28ZM54.0145 19.44L55.5138 22.166L55.5311 22.1565L55.5483 22.1467L54.0145 19.44ZM61.3145 21.64L62.3549 24.572L65.4051 23.4897L64.2031 20.4846L61.3145 21.64ZM58.8345 22.52L56.0328 23.8726L57.2457 26.3849L59.8749 25.452L58.8345 22.52ZM57.9545 21.6L56.3138 24.2433L56.3666 24.2761L56.4207 24.3067L57.9545 21.6ZM55.3545 21.6L56.9691 24.2593L57.0032 24.2386L57.0368 24.217L55.3545 21.6ZM54.4745 22.56L51.7099 21.1331L51.7099 21.1331L54.4745 22.56ZM54.4745 25.44L51.7099 26.8669L51.7195 26.8855L51.7294 26.9041L54.4745 25.44ZM55.3745 26.4L57.0152 23.7567L55.3745 26.4ZM57.9945 26.38L56.3299 23.7517L56.3096 23.7645L56.2895 23.7777L57.9945 26.38ZM58.8745 25.38L59.9075 22.4454L57.2143 21.4974L56.0391 24.0995L58.8745 25.38ZM61.3745 26.26L64.2546 27.4364L65.4905 24.4106L62.4075 23.3254L61.3745 26.26ZM59.5545 28.46L57.898 25.8266L57.8883 25.8327L57.8787 25.8388L59.5545 28.46ZM56.8145 26.1289C56.226 26.1289 55.8192 26.0083 55.5148 25.8436L52.5542 31.3164C53.8764 32.0317 55.323 32.3511 56.8145 32.3511V26.1289ZM55.5492 25.8625C55.2143 25.6759 54.9949 25.4526 54.8301 25.1666L49.4389 28.2734C50.1808 29.5607 51.228 30.5775 52.5198 31.2975L55.5492 25.8625ZM54.8412 25.1862C54.6794 24.9005 54.5656 24.5319 54.5656 24H48.3434C48.3434 25.4947 48.683 26.9395 49.4278 28.2538L54.8412 25.1862ZM54.5656 24C54.5656 23.4459 54.6831 23.0884 54.8301 22.8334L49.4389 19.7266C48.6792 21.0449 48.3434 22.5007 48.3434 24H54.5656ZM54.8301 22.8334C54.9977 22.5425 55.2093 22.3335 55.5138 22.166L52.5152 16.714C51.2197 17.4265 50.178 18.4442 49.4389 19.7266L54.8301 22.8334ZM55.5483 22.1467C55.8219 21.9917 56.2004 21.8711 56.7745 21.8711V15.6489C55.2685 15.6489 53.8071 15.9816 52.4807 16.7333L55.5483 22.1467ZM56.7745 21.8711C57.2359 21.8711 57.5947 21.9773 57.9202 22.1715L61.1088 16.8284C59.7809 16.036 58.3131 15.6489 56.7745 15.6489V21.8711ZM57.9202 22.1715C58.1336 22.2989 58.294 22.4657 58.4259 22.7954L64.2031 20.4846C63.5883 18.9476 62.5487 17.6877 61.1088 16.8284L57.9202 22.1715ZM60.2741 18.708L57.7941 19.588L59.8749 25.452L62.3549 24.572L60.2741 18.708ZM61.6362 21.1674C61.1546 20.1699 60.3978 19.4086 59.4883 18.8933L56.4207 24.3067C56.3786 24.2829 56.3061 24.2339 56.2263 24.1505C56.1451 24.0656 56.0793 23.969 56.0328 23.8726L61.6362 21.1674ZM59.5952 18.9567C58.6884 18.3939 57.6811 18.1289 56.6545 18.1289V24.3511C56.6328 24.3511 56.5806 24.348 56.5092 24.3283C56.4367 24.3082 56.3692 24.2777 56.3138 24.2433L59.5952 18.9567ZM56.6545 18.1289C55.6334 18.1289 54.6022 18.3851 53.6721 18.983L57.0368 24.217C56.9568 24.2685 56.8707 24.3059 56.7898 24.3283C56.7112 24.35 56.6614 24.3511 56.6545 24.3511V18.1289ZM53.7399 18.9407C52.845 19.484 52.1681 20.2454 51.7099 21.1331L57.2391 23.9869C57.2283 24.0078 57.2003 24.055 57.1479 24.1123C57.0945 24.1704 57.0323 24.2209 56.9691 24.2593L53.7399 18.9407ZM51.7099 21.1331C51.2321 22.0588 51.0434 23.0437 51.0434 24H57.2656C57.2656 23.9288 57.2725 23.9003 57.2715 23.9049C57.271 23.9072 57.2688 23.9166 57.2634 23.9316C57.2579 23.9468 57.25 23.9657 57.2391 23.9869L51.7099 21.1331ZM51.0434 24C51.0434 24.9563 51.2321 25.9412 51.7099 26.8669L57.2391 24.0131C57.25 24.0343 57.2579 24.0532 57.2634 24.0684C57.2688 24.0834 57.271 24.0928 57.2715 24.0951C57.2725 24.0997 57.2656 24.0712 57.2656 24H51.0434ZM51.7294 26.9041C52.2016 27.7895 52.8835 28.5155 53.7338 29.0433L57.0152 23.7567C57.0444 23.7748 57.0861 23.8062 57.1292 23.8522C57.1723 23.8982 57.202 23.9429 57.2196 23.9759L51.7294 26.9041ZM53.7338 29.0433C54.6544 29.6147 55.6719 29.8711 56.6945 29.8711V23.6489C56.7019 23.6489 56.7455 23.6501 56.8131 23.6685C56.8823 23.6874 56.9527 23.7179 57.0152 23.7567L53.7338 29.0433ZM56.6945 29.8711C57.7557 29.8711 58.786 29.5808 59.6995 28.9823L56.2895 23.7777C56.3469 23.7401 56.4215 23.7037 56.5066 23.6788C56.5909 23.6542 56.6577 23.6489 56.6945 23.6489V29.8711ZM59.6591 29.0083C60.5488 28.4448 61.2616 27.653 61.7099 26.6605L56.0391 24.0995C56.0702 24.0306 56.1171 23.955 56.1789 23.8847C56.2401 23.8152 56.2967 23.7727 56.3299 23.7517L59.6591 29.0083ZM57.8415 28.3146L60.3415 29.1946L62.4075 23.3254L59.9075 22.4454L57.8415 28.3146ZM58.4944 25.0836C58.3411 25.4589 58.1477 25.6695 57.898 25.8266L61.211 31.0934C62.6146 30.2105 63.6346 28.9545 64.2546 27.4364L58.4944 25.0836ZM57.8787 25.8388C57.5912 26.0226 57.2649 26.1289 56.8145 26.1289V32.3511C58.3907 32.3511 59.8911 31.9374 61.2303 31.0812L57.8787 25.8388ZM68.9525 29L65.8438 29.1231L65.9621 32.1111H68.9525V29ZM68.8725 26.98H65.7614V27.0416L65.7638 27.1031L68.8725 26.98ZM68.6725 22.4L65.6775 23.2423L65.6896 23.2853L65.703 23.328L68.6725 22.4ZM68.0725 21.42L65.9912 23.7325L66.0517 23.7869L66.115 23.8381L68.0725 21.42ZM65.8125 21.34L64.3375 18.6008V18.6008L65.8125 21.34ZM64.9325 22.2L63.9183 25.1412L66.2661 25.9508L67.5758 23.8407L64.9325 22.2ZM62.6125 21.4L59.7622 20.153L58.4108 23.242L61.5983 24.3412L62.6125 21.4ZM63.4325 20.16L65.7449 22.2412L65.7619 22.2224L65.7785 22.2033L63.4325 20.16ZM64.8325 19.16L66.0899 22.0057L66.1049 21.9991L66.1198 21.9923L64.8325 19.16ZM69.4925 19.34L67.9316 22.0312L67.9431 22.0379L67.9546 22.0445L69.4925 19.34ZM70.9925 20.98L68.1584 22.2634L68.1731 22.2959L68.1886 22.328L70.9925 20.98ZM71.4725 23.46L68.3616 23.4168L68.3615 23.4263L71.4725 23.46ZM71.4125 29V32.1111H74.4901L74.5234 29.0337L71.4125 29ZM63.3525 28.44L61.3851 30.8501L61.397 30.8598L61.409 30.8694L63.3525 28.44ZM63.4325 23.78L65.3066 26.2633L65.3138 26.2578L63.4325 23.78ZM68.9925 22.96H72.1036V19.8489H68.9925V22.96ZM68.9925 24.92V28.0311H72.1036V24.92H68.9925ZM65.5725 25.24L67.1731 27.9078L67.2117 27.8846L67.2495 27.8604L65.5725 25.24ZM65.4725 26.8L63.7769 29.4085L63.8238 29.439L63.8718 29.4678L65.4725 26.8ZM67.7525 26.74L69.3531 29.4078L69.3681 29.3988L69.383 29.3896L67.7525 26.74ZM68.5725 25.94L71.2107 27.5889L71.2257 27.5649L71.2402 27.5407L68.5725 25.94ZM68.8725 24.92V21.8089H65.7614V24.92H68.8725ZM69.5125 24.92H72.6236V21.8089H69.5125V24.92ZM68.7325 28.1L66.1648 26.3432L66.1543 26.3587L66.1439 26.3743L68.7325 28.1ZM72.0611 28.8769L71.9811 26.8569L65.7638 27.1031L65.8438 29.1231L72.0611 28.8769ZM71.9836 26.98V23.94H65.7614V26.98H71.9836ZM71.9836 23.94C71.9836 23.1257 71.895 22.2818 71.642 21.472L65.703 23.328C65.7166 23.3715 65.7614 23.5543 65.7614 23.94H71.9836ZM71.6674 21.5577C71.4137 20.6558 70.9159 19.7191 70.03 19.0019L66.115 23.8381C65.789 23.5742 65.6912 23.2909 65.6775 23.2423L71.6674 21.5577ZM70.1537 19.1075C69.1611 18.2142 67.9706 17.9489 66.9725 17.9489V24.1711C66.9077 24.1711 66.4505 24.1458 65.9912 23.7325L70.1537 19.1075ZM66.9725 17.9489C66.0751 17.9489 65.1748 18.1499 64.3375 18.6008L67.2874 24.0792C67.2233 24.1138 67.156 24.1389 67.0925 24.1543C67.0301 24.1693 66.9873 24.1711 66.9725 24.1711V17.9489ZM64.3375 18.6008C63.4418 19.083 62.7707 19.7835 62.2891 20.5593L67.5758 23.8407C67.5779 23.8374 67.5578 23.8703 67.5069 23.92C67.4543 23.9714 67.3807 24.029 67.2874 24.0792L64.3375 18.6008ZM65.9467 19.2588L63.6267 18.4588L61.5983 24.3412L63.9183 25.1412L65.9467 19.2588ZM65.4627 22.647C65.497 22.5687 65.5737 22.4314 65.7449 22.2412L61.12 18.0788C60.5712 18.6886 60.1013 19.378 59.7622 20.153L65.4627 22.647ZM65.7785 22.2033C65.7986 22.1802 65.874 22.1011 66.0899 22.0057L63.5751 16.3143C62.6443 16.7256 61.7863 17.3131 61.0864 18.1167L65.7785 22.2033ZM66.1198 21.9923C66.1992 21.9562 66.4475 21.8711 66.9725 21.8711V15.6489C65.8174 15.6489 64.639 15.8305 63.5451 16.3277L66.1198 21.9923ZM66.9725 21.8711C67.6053 21.8711 67.8657 21.993 67.9316 22.0312L71.0534 16.6488C69.7858 15.9136 68.3663 15.6489 66.9725 15.6489V21.8711ZM67.9546 22.0445C68.0684 22.1092 68.1119 22.1608 68.1584 22.2634L73.8265 19.6966C73.233 18.3859 72.2765 17.3442 71.0303 16.6355L67.9546 22.0445ZM68.1886 22.328C68.2681 22.4935 68.3699 22.8214 68.3617 23.4168L74.5833 23.5032C74.6017 22.1786 74.3835 20.8532 73.7964 19.632L68.1886 22.328ZM68.3615 23.4263L68.3015 28.9663L74.5234 29.0337L74.5834 23.4937L68.3615 23.4263ZM71.4125 25.8889H68.9525V32.1111H71.4125V25.8889ZM66.1525 26.1289C65.3775 26.1289 65.2254 25.9542 65.296 26.0106L61.409 30.8694C62.8129 31.9925 64.5274 32.3511 66.1525 32.3511V26.1289ZM65.3199 26.0299C65.3376 26.0444 65.367 26.072 65.3987 26.1137C65.4306 26.1556 65.4551 26.1989 65.4718 26.2373C65.5062 26.3168 65.4836 26.3186 65.4836 26.18H59.2614C59.2614 27.9263 59.8916 29.6309 61.3851 30.8501L65.3199 26.0299ZM65.4836 26.18C65.4836 25.9866 65.5156 25.964 65.4834 26.0369C65.4673 26.0733 65.4412 26.1193 65.404 26.1661C65.3669 26.2127 65.331 26.2448 65.3066 26.2633L61.5583 21.2967C59.9096 22.541 59.2614 24.3615 59.2614 26.18H65.4836ZM65.3138 26.2578C65.314 26.2576 65.3272 26.2475 65.3608 26.2316C65.3952 26.2152 65.4535 26.1916 65.5427 26.1674C65.7257 26.1177 66.0182 26.0711 66.4525 26.0711V19.8489C64.7633 19.8489 63.0014 20.201 61.5511 21.3022L65.3138 26.2578ZM66.4525 26.0711H68.9925V19.8489H66.4525V26.0711ZM65.8813 22.96V24.92H72.1036V22.96H65.8813ZM68.9925 21.8089H67.3725V28.0311H68.9925V21.8089ZM67.3725 21.8089C66.4675 21.8089 65.0509 21.8801 63.8954 22.6196L67.2495 27.8604C67.08 27.9689 66.9446 28.0213 66.8815 28.0429C66.8163 28.0653 66.7896 28.068 66.817 28.0631C66.8426 28.0585 66.9007 28.05 66.9981 28.0429C67.0945 28.0359 67.2182 28.0311 67.3725 28.0311V21.8089ZM63.9718 22.5722C62.7486 23.3062 61.9613 24.5799 61.9613 26.1H68.1836C68.1836 26.392 68.1132 26.7796 67.887 27.1687C67.6642 27.552 67.3789 27.7843 67.1731 27.9078L63.9718 22.5722ZM61.9613 26.1C61.9613 27.5478 62.7159 28.7188 63.7769 29.4085L67.168 24.1915C67.374 24.3254 67.6534 24.5659 67.8737 24.9515C68.0998 25.3472 68.1836 25.7562 68.1836 26.1H61.9613ZM63.8718 29.4678C64.8168 30.0347 65.83 30.1511 66.5925 30.1511V23.9289C66.5184 23.9289 66.5303 23.9221 66.6043 23.9379C66.679 23.9539 66.8548 24.0013 67.0731 24.1322L63.8718 29.4678ZM66.5925 30.1511C67.5203 30.1511 68.475 29.9346 69.3531 29.4078L66.1518 24.0722C66.2481 24.0145 66.3458 23.9757 66.4335 23.953C66.5189 23.9309 66.576 23.9289 66.5925 23.9289V30.1511ZM69.383 29.3896C70.1054 28.945 70.7368 28.3471 71.2107 27.5889L65.9342 24.2911C65.9674 24.238 66.006 24.1911 66.0449 24.1531C66.0832 24.1158 66.1123 24.0963 66.1219 24.0904L69.383 29.3896ZM71.2402 27.5407C71.6942 26.7839 71.9836 25.8968 71.9836 24.92H65.7614C65.7614 24.7896 65.7808 24.6658 65.8128 24.5571C65.8441 24.4506 65.8818 24.3775 65.9047 24.3393L71.2402 27.5407ZM68.8725 28.0311H69.5125V21.8089H68.8725V28.0311ZM66.4014 24.92C66.4014 25.936 66.199 26.2932 66.1648 26.3432L71.3001 29.8568C72.3059 28.3868 72.6236 26.624 72.6236 24.92H66.4014ZM66.1439 26.3743C66.1785 26.3223 66.2288 26.2636 66.2934 26.2097C66.3575 26.1562 66.4149 26.1249 66.4501 26.1093C66.5134 26.0813 66.4467 26.1289 66.1525 26.1289V32.3511C68.027 32.3511 70.0548 31.7251 71.3211 29.8257L66.1439 26.3743ZM73.5765 29H70.4654V32.1111H73.5765V29ZM73.5765 19V15.8889H70.4654V19H73.5765ZM76.0565 19L79.1559 18.7305L78.9088 15.8889H76.0565V19ZM76.2165 20.84H79.3276V20.705L79.3159 20.5705L76.2165 20.84ZM76.2165 29V32.1111H79.3276V29H76.2165ZM80.1965 29H77.0854V32.1111H80.1965V29ZM80.1965 23.88V20.7689H77.0854V23.88H80.1965ZM82.8365 23.88H85.9476V20.7689H82.8365V23.88ZM82.8365 29V32.1111H85.9476V29H82.8365ZM80.1965 23.88H77.0854V26.9911H80.1965V23.88ZM79.9565 22.3L77.0609 23.4376L77.0782 23.4818L77.097 23.5255L79.9565 22.3ZM79.3165 21.5L77.679 24.1453L77.7255 24.1741L77.773 24.2012L79.3165 21.5ZM78.3365 21.24L78.2755 24.3505L78.306 24.3511H78.3365V21.24ZM76.7565 21.86L74.4152 19.8113L74.3968 19.8324L74.3787 19.8537L76.7565 21.86ZM76.2165 23.76V26.8711H79.3276V23.76H76.2165ZM75.3365 23.76H72.2254V26.8711H75.3365V23.76ZM75.7965 21.06L72.937 19.8345L72.9316 19.8471L72.9263 19.8597L75.7965 21.06ZM77.1165 19.36L78.8842 21.9201L78.8904 21.9158L78.8966 21.9115L77.1165 19.36ZM81.1365 19.24L82.6801 16.5388L82.6801 16.5388L81.1365 19.24ZM82.4165 20.74L79.5599 21.9723L79.5643 21.9826L79.5689 21.993L82.4165 20.74ZM82.8365 23.34L79.7257 23.3011L79.7254 23.3206V23.34H82.8365ZM82.8365 23.88V26.9911H85.9476V23.88H82.8365ZM76.6876 29V19H70.4654V29H76.6876ZM73.5765 22.1111H76.0565V15.8889H73.5765V22.1111ZM72.9571 19.2695L73.1171 21.1095L79.3159 20.5705L79.1559 18.7305L72.9571 19.2695ZM73.1054 20.84V29H79.3276V20.84H73.1054ZM76.2165 25.8889H73.5765V32.1111H76.2165V25.8889ZM83.3076 29V23.88H77.0854V29H83.3076ZM80.1965 26.9911H82.8365V20.7689H80.1965V26.9911ZM79.7254 23.88V29H85.9476V23.88H79.7254ZM82.8365 25.8889H80.1965V32.1111H82.8365V25.8889ZM83.3076 23.88C83.3076 23.0251 83.2174 22.0109 82.8161 21.0745L77.097 23.5255C77.0466 23.4079 77.0488 23.3638 77.0607 23.4422C77.0718 23.5155 77.0854 23.6559 77.0854 23.88H83.3076ZM82.8522 21.1624C82.511 20.294 81.8939 19.3896 80.8601 18.7988L77.773 24.2012C77.2991 23.9304 77.1087 23.5593 77.0609 23.4376L82.8522 21.1624ZM80.9541 18.8547C80.1189 18.3377 79.2091 18.1289 78.3365 18.1289V24.3511C78.2106 24.3511 77.9542 24.3156 77.679 24.1453L80.9541 18.8547ZM78.3975 18.1295C77.0012 18.1021 75.5148 18.5546 74.4152 19.8113L79.0979 23.9087C78.9572 24.0694 78.7693 24.2021 78.568 24.2811C78.3814 24.3543 78.264 24.3503 78.2755 24.3505L78.3975 18.1295ZM74.3787 19.8537C73.357 21.0646 73.1054 22.5427 73.1054 23.76H79.3276C79.3276 23.66 79.3331 23.59 79.3384 23.546C79.3438 23.5021 79.3483 23.4908 79.3441 23.5055C79.3349 23.5381 79.2854 23.6872 79.1343 23.8663L74.3787 19.8537ZM76.2165 20.6489H75.3365V26.8711H76.2165V20.6489ZM78.4476 23.76C78.4476 22.9725 78.5634 22.5075 78.6668 22.2603L72.9263 19.8597C72.4163 21.0792 72.2254 22.4142 72.2254 23.76H78.4476ZM78.6561 22.2855C78.7252 22.1243 78.7863 22.0314 78.8238 21.983C78.8593 21.9374 78.88 21.9231 78.8842 21.9201L75.3488 16.7999C74.2199 17.5793 73.4427 18.6544 72.937 19.8345L78.6561 22.2855ZM78.8966 21.9115C78.9137 21.8996 78.9248 21.8946 78.9405 21.8899C78.9585 21.8845 79.0117 21.8711 79.1165 21.8711V15.6489C77.7781 15.6489 76.4777 16.0122 75.3364 16.8085L78.8966 21.9115ZM79.1165 21.8711C79.2999 21.8711 79.4207 21.8898 79.4923 21.9068C79.5611 21.9232 79.5889 21.9389 79.593 21.9412L82.6801 16.5388C81.5569 15.897 80.3263 15.6489 79.1165 15.6489V21.8711ZM79.593 21.9412C79.5768 21.932 79.5595 21.9201 79.543 21.9064C79.5266 21.8928 79.5156 21.8811 79.5099 21.8745C79.5045 21.8681 79.5071 21.87 79.5158 21.8842C79.5246 21.8987 79.5402 21.9268 79.5599 21.9723L85.2732 19.5077C84.7541 18.3044 83.9098 17.2415 82.6801 16.5388L79.593 21.9412ZM79.5689 21.993C79.62 22.1091 79.7358 22.4893 79.7257 23.3011L85.9474 23.3789C85.9639 22.0574 85.7998 20.7043 85.2642 19.487L79.5689 21.993ZM79.7254 23.34V23.88H85.9476V23.34H79.7254ZM82.8365 20.7689H80.1965V26.9911H82.8365V20.7689Z" fill="#7E7E7E" fill-opacity="0.05" mask="url(#path-6-outside-1_2_2068)"/>
<path d="M31.4812 27.2131C31.4809 27.342 31.4537 27.4695 31.4012 27.5872C31.3487 27.7049 31.2721 27.8104 31.1764 27.8967C30.9949 28.0605 30.7559 28.1456 30.5118 28.1335C30.2676 28.1214 30.0382 28.013 29.8739 27.8321C28.4398 26.2364 27.6465 24.1668 27.6465 22.0215C27.6465 19.8761 28.4398 17.8065 29.8739 16.2108C30.038 16.0283 30.268 15.9185 30.5131 15.9055C30.6345 15.8991 30.7559 15.9166 30.8705 15.9571C30.9851 15.9976 31.0906 16.0603 31.181 16.1416C31.2714 16.2228 31.3449 16.3211 31.3973 16.4308C31.4497 16.5405 31.4799 16.6594 31.4864 16.7808C31.4994 17.0259 31.4145 17.2662 31.2503 17.4487C30.1207 18.7039 29.4957 20.3328 29.4957 22.0215C29.4957 23.7101 30.1207 25.339 31.2503 26.5942C31.4009 26.765 31.4832 26.9854 31.4812 27.2131Z" fill="#F3F5F4"/>
<path d="M33.0982 19.0929C33.2664 18.9279 33.4912 18.8334 33.7267 18.8287C33.9622 18.824 34.1906 18.9094 34.3652 19.0675C34.5398 19.2256 34.6474 19.4444 34.666 19.6792C34.6847 19.9141 34.6129 20.1471 34.4654 20.3308C34.0633 20.8022 33.8424 21.4016 33.8424 22.0213C33.8424 22.641 34.0633 23.2403 34.4654 23.7118C34.6194 23.8812 34.705 24.1018 34.7056 24.3307C34.7051 24.517 34.6484 24.6988 34.5427 24.8522C34.4371 25.0056 34.2876 25.1235 34.1138 25.1904C33.94 25.2574 33.75 25.2702 33.5688 25.2272C33.3875 25.1843 33.2235 25.0875 33.0982 24.9497C32.4008 24.1334 32.0176 23.095 32.0176 22.0213C32.0176 20.9476 32.4008 19.9092 33.0982 19.0929Z" fill="#F3F5F4"/>
<path d="M28.2391 30.0954C28.2386 30.2816 28.1819 30.4634 28.0763 30.6168C27.9706 30.7702 27.8211 30.8881 27.6473 30.955C27.4735 31.022 27.2835 31.0348 27.1023 30.9918C26.921 30.9489 26.757 30.8521 26.6317 30.7143C24.4907 28.3251 23.3066 25.2297 23.3066 22.0215C23.3066 18.8133 24.4907 15.7179 26.6317 13.3287C26.7949 13.1464 27.0236 13.0363 27.2677 13.0225C27.5119 13.0086 27.7516 13.0921 27.9343 13.2548C28.0259 13.3356 28.1005 13.4339 28.1539 13.5438C28.2072 13.6538 28.2382 13.7732 28.2451 13.8952C28.252 14.0172 28.2346 14.1394 28.1939 14.2546C28.1532 14.3698 28.0901 14.4759 28.0082 14.5665C26.1697 16.6144 25.1527 19.2694 25.1527 22.0215C25.1527 24.7735 26.1697 27.4285 28.0082 29.4764C28.1588 29.6472 28.2411 29.8676 28.2391 30.0954Z" fill="#F3F5F4"/>
<path d="M24.8024 11.6752C22.2556 14.5196 20.8473 18.2035 20.8473 22.0216C20.8473 25.8396 22.2556 29.5235 24.8024 32.368C24.951 32.5364 25.0331 32.7531 25.0334 32.9777C25.0329 33.1639 24.9761 33.3457 24.8705 33.4991C24.7649 33.6525 24.6154 33.7704 24.4416 33.8373C24.2677 33.9043 24.0778 33.9171 23.8965 33.8741C23.7153 33.8312 23.5513 33.7344 23.426 33.5966C20.576 30.4147 19 26.2932 19 22.0216C19 17.7499 20.576 13.6284 23.426 10.4466C23.5045 10.3488 23.6021 10.268 23.7128 10.2091C23.8235 10.1502 23.945 10.1145 24.07 10.1041C24.1949 10.0937 24.3207 10.1089 24.4396 10.1487C24.5585 10.1885 24.6681 10.2521 24.7616 10.3356C24.8552 10.4191 24.9308 10.5207 24.9837 10.6344C25.0367 10.748 25.066 10.8713 25.0698 10.9966C25.0737 11.122 25.0519 11.2468 25.0059 11.3634C24.96 11.4801 24.8907 11.5862 24.8024 11.6752Z" fill="#F3F5F4"/>
</svg>
